<svg xmlns="http://www.w3.org/2000/svg" viewBox="0 0 48 48"><path fill="#42a5f5" d="M45,47a1,1,0,0,1-1,1H8a1,1,0,0,1-1-1V43H9v3H43V12H38a3,3,0,0,1-3-3V2H9V21H7V1A1,1,0,0,1,8,0C38.48,0,36.19-.12,36.64.25c.13.1,8.19,10.16,8.27,10.34C44.91,14.35,45-2.95,45,47Z"/><path fill="#42a5f5" d="M29 31a1 1 0 1 1 1-1 1 1 0 0 0 1 1c1.91 0 1-4-2-4a3 3 0 0 0 0 6 1 1 0 1 1-1 1 1 1 0 0 0-1-1c-1.91 0-1 4 2 4a3 3 0 0 0 0-6zM21 29a1 1 0 0 1 1 1 1 1 0 0 0 1 1c1.91 0 1-4-2-4a3 3 0 0 0 0 6 1 1 0 1 1-1 1 1 1 0 0 0-1-1c-1.91 0-1 4 2 4a3 3 0 0 0 0-6A1 1 0 0 1 21 29zM14.48 34.34A2 2 0 0 1 11 33V31a2 2 0 0 1 3.43-1.4 1 1 0 1 0 1.4-1.43A4 4 0 0 0 9 31v2a4 4 0 0 0 7 2.66A1 1 0 0 0 14.48 34.34z"/><path fill="#424242" d="M37,41H4a1,1,0,0,1-1-1V24a1,1,0,0,1,1-1H37a1,1,0,0,1,1,1V40A1,1,0,0,1,37,41ZM5,39H36V25H5Z"/><path fill="#42a5f5" d="M20 15a1 1 0 0 1-2 0A1 1 0 0 1 20 15zM24 15a1 1 0 0 1-2 0A1 1 0 0 1 24 15zM28 15a1 1 0 0 1-2 0A1 1 0 0 1 28 15z"/><path fill="#424242" d="M17 20H16a2 2 0 0 1-2-2c0-1.7.11-1.48-.71-2.29a1 1 0 0 1 0-1.42c.83-.82.71-.59.71-2.29a2 2 0 0 1 2-2h1a1 1 0 0 1 0 2H16c0 1.62.05 2.13-.62 3 .71.92.62 1.68.62 3h1A1 1 0 0 1 17 20zM30 20H29a1 1 0 0 1 0-2h1c0-1.62-.05-2.13.62-3-.71-.92-.62-1.68-.62-3H29a1 1 0 0 1 0-2h1a2 2 0 0 1 2 2c0 1.7-.11 1.48.71 2.29a1 1 0 0 1 0 1.42c-.8.8-.71.55-.71 2.29A2 2 0 0 1 30 20z"/></svg>